<?xml version="1.0" encoding="UTF-8"?>
<svg width="700pt" height="700pt" version="1.1" viewBox="0 0 700 700" xmlns="http://www.w3.org/2000/svg">
 <path d="m577.5 157.5h-455c-4.6406 0-9.0938 1.8438-12.375 5.125s-5.125 7.7344-5.125 12.375v122.5c0 4.6406 1.8438 9.0938 5.125 12.375s7.7344 5.125 12.375 5.125h246.75c5.832 28.441 25.395 52.141 52.219 63.254 26.824 11.117 57.414 8.2031 81.656-7.7773l44.449 44.449c4.5078 3.8555 10.66 5.1719 16.348 3.4883 5.6875-1.6797 10.137-6.1289 11.816-11.816 1.6836-5.6914 0.37109-11.844-3.4883-16.348l-44.449-44.449c6.2539-9.3398 10.652-19.797 12.949-30.801h36.75c4.6406 0 9.0938-1.8438 12.375-5.125s5.125-7.7344 5.125-12.375v-122.5c0-4.6406-1.8438-9.0938-5.125-12.375s-7.7344-5.125-12.375-5.125zm-175 140c0-13.926 5.5312-27.277 15.375-37.125 9.8477-9.8438 23.199-15.375 37.125-15.375s27.277 5.5312 37.125 15.375c9.8438 9.8477 15.375 23.199 15.375 37.125s-5.5312 27.277-15.375 37.125c-9.8477 9.8438-23.199 15.375-37.125 15.375s-27.277-5.5312-37.125-15.375c-9.8438-9.8477-15.375-23.199-15.375-37.125zm157.5-17.5h-19.25c-5.3984-26.578-22.812-49.152-47.152-61.117-24.344-11.961-52.852-11.961-77.195 0-24.34 11.965-41.754 34.539-47.152 61.117h-229.25v-87.5h420z"/>
</svg>
